# xmcd CD database file
#
# Track frame offsets:
#	150
#	13282
#	40813
#	76147
#	116813
#	145515
#
# Disc length: 2398 seconds
#
# Revision: 0
# Processed by: cddbd v1.5.1PL2 Copyright (c) Steve Scherf et al.
# Submitted via: CDex 1.51
#
DISCID=45095c06
DTITLE=Marco V - False Light
DYEAR=2006
DGENRE=Trance
TTITLE0=False Light - Radio Edit
TTITLE1=False Light - Single Extended Mix
TTITLE2=False Light - Original Extended Mix
TTITLE3=False Light - Ton TB Remix
TTITLE4=False Light - Marco V's Thunderdub
TTITLE5=False Light - Danny Olivera Ghost Ryder Remix
EXTD=YEAR: 2006
EXTT0=
EXTT1=
EXTT2=
EXTT3=
EXTT4=
EXTT5=
PLAYORDER=
